<svg width="17" height="13" viewBox="0 0 17 13" fill="none" xmlns="http://www.w3.org/2000/svg">
<path d="M13.6194 0.255127H3.38057C1.51647 0.255127 0 1.77645 0 3.64611V9.35359C0 11.2236 1.51647 12.7446 3.38057 12.7446H13.6194C15.4835 12.7446 17 11.2232 17 9.35359V3.64611C17 1.77645 15.4835 0.255127 13.6194 0.255127ZM16.3061 9.35394C16.3061 10.8413 15.1009 12.051 13.6194 12.051H3.38057C1.89914 12.051 0.693878 10.8409 0.693878 9.35394V3.64611C0.693878 2.15913 1.89914 0.949004 3.38057 0.949004H13.6194C15.1009 0.949004 16.3061 2.15913 16.3061 3.64611V9.35394Z" fill="black"/>
<path d="M11.5741 6.37433L6.76726 3.55892C6.6604 3.49648 6.52753 3.49543 6.41963 3.55719C6.31173 3.61894 6.24512 3.73378 6.24512 3.85833V9.4888C6.24512 9.61301 6.31173 9.72819 6.41928 9.78995C6.47271 9.82048 6.53238 9.83574 6.59206 9.83574C6.65277 9.83574 6.71314 9.81978 6.76726 9.78821L11.5741 6.9735C11.6803 6.91139 11.7458 6.79725 11.7458 6.67409C11.7458 6.55093 11.6806 6.43644 11.5741 6.37433ZM6.93899 8.8834V4.46339L10.7123 6.67374L6.93899 8.8834Z" fill="black"/>
</svg>
